<svg width="30" height="30" viewBox="0 0 30 30" fill="none" xmlns="http://www.w3.org/2000/svg">
<path d="M26.6667 0H3.33333C1.5 0 0 1.5 0 3.33333V26.6667C0 28.5 1.5 30 3.33333 30H26.6667C28.5 30 30 28.5 30 26.6667V3.33333C30 1.5 28.5 0 26.6667 0ZM15 5C18.2167 5 20.8333 7.61667 20.8333 10.8333C20.8333 14.05 18.2167 16.6667 15 16.6667C11.7833 16.6667 9.16667 14.05 9.16667 10.8333C9.16667 7.61667 11.7833 5 15 5ZM26.6667 26.6667H3.33333V26.2833C3.33333 25.25 3.8 24.2833 4.6 23.65C7.45 21.3667 11.0667 20 15 20C18.9333 20 22.55 21.3667 25.4 23.65C26.2 24.2833 26.6667 25.2667 26.6667 26.2833V26.6667Z" fill="#73BAF4"/>
</svg>
