<svg width="20" height="20" viewBox="0 0 20 20" fill="none" xmlns="http://www.w3.org/2000/svg">
<path d="M6.66663 5.83325V9.16658L1.66663 4.99992L6.66663 0.833252V4.16659H10.8333C12.6014 4.16659 14.2971 4.86896 15.5473 6.11921C16.7976 7.36945 17.5 9.06514 17.5 10.8333C17.5 12.6014 16.7976 14.2971 15.5473 15.5473C14.2971 16.7975 12.6014 17.4999 10.8333 17.4999H3.33329V15.8333H10.8333C12.1594 15.8333 13.4311 15.3065 14.3688 14.3688C15.3065 13.4311 15.8333 12.1593 15.8333 10.8333C15.8333 9.50717 15.3065 8.2354 14.3688 7.29772C13.4311 6.36004 12.1594 5.83325 10.8333 5.83325H6.66663Z" fill="black"/>
</svg>
