<svg width="70" height="70" viewBox="0 0 70 70" fill="none" xmlns="http://www.w3.org/2000/svg">
<path d="M66.304 20.65C66.416 21.056 66.2746 21.504 66.038 21.854L58.492 33.082C58.212 33.516 57.624 33.754 57.1326 33.754C56.9926 33.754 56.6006 33.726 56.448 33.684L50.4 32.2V58.8C50.4 59.612 49.826 60.2 49 60.2H19.6C18.774 60.2 18.2 59.612 18.2 58.8V32.2L12.768 33.698C12.138 33.894 11.592 33.642 11.242 33.096L3.75201 21.896C3.51401 21.532 3.44401 21.126 3.55601 20.72C3.65401 20.3 3.94801 20.02 4.32601 19.824L19.6 12.6H26.6C27.426 12.6 28 13.174 28 14C28 16.884 32.046 18.928 34.93 18.928C37.814 18.928 42 16.898 42 14C42 13.188 42.574 12.6 43.4 12.6H50.4L65.52 19.684C65.912 19.88 66.192 20.23 66.304 20.65Z" fill="#73BAF4"/>
</svg>
