<svg width="54" height="54" viewBox="0 0 54 54" fill="none" xmlns="http://www.w3.org/2000/svg">
<path d="M15.75 40.5V38.25C15.75 35.2663 16.9353 32.4048 19.045 30.295C21.1548 28.1853 24.0163 27 27 27M27 27C29.9837 27 32.8452 28.1853 34.955 30.295C37.0647 32.4048 38.25 35.2663 38.25 38.25V40.5M27 27C28.7902 27 30.5071 26.2888 31.773 25.023C33.0388 23.7571 33.75 22.0402 33.75 20.25C33.75 18.4598 33.0388 16.7429 31.773 15.477C30.5071 14.2112 28.7902 13.5 27 13.5C25.2098 13.5 23.4929 14.2112 22.227 15.477C20.9612 16.7429 20.25 18.4598 20.25 20.25C20.25 22.0402 20.9612 23.7571 22.227 25.023C23.4929 26.2888 25.2098 27 27 27ZM2.25 40.5V38.25C2.25 36.4598 2.96116 34.7429 4.22703 33.477C5.4929 32.2112 7.20979 31.5 9 31.5M9 31.5C10.1935 31.5 11.3381 31.0259 12.182 30.182C13.0259 29.3381 13.5 28.1935 13.5 27C13.5 25.8065 13.0259 24.6619 12.182 23.818C11.3381 22.9741 10.1935 22.5 9 22.5C7.80653 22.5 6.66193 22.9741 5.81802 23.818C4.97411 24.6619 4.5 25.8065 4.5 27C4.5 28.1935 4.97411 29.3381 5.81802 30.182C6.66193 31.0259 7.80653 31.5 9 31.5ZM51.75 40.5V38.25C51.75 36.4598 51.0388 34.7429 49.773 33.477C48.5071 32.2112 46.7902 31.5 45 31.5M45 31.5C46.1935 31.5 47.3381 31.0259 48.182 30.182C49.0259 29.3381 49.5 28.1935 49.5 27C49.5 25.8065 49.0259 24.6619 48.182 23.818C47.3381 22.9741 46.1935 22.5 45 22.5C43.8065 22.5 42.6619 22.9741 41.818 23.818C40.9741 24.6619 40.5 25.8065 40.5 27C40.5 28.1935 40.9741 29.3381 41.818 30.182C42.6619 31.0259 43.8065 31.5 45 31.5Z" stroke="#73BAF4" stroke-width="4.5" stroke-linecap="round" stroke-linejoin="round"/>
</svg>
