<svg width="70" height="70" viewBox="0 0 70 70" fill="none" xmlns="http://www.w3.org/2000/svg">
<path d="M27.5765 26.25C29.3405 24.115 32.011 22.75 35 22.75C37.989 22.75 40.6595 24.115 42.4235 26.25C43.5849 27.6581 44.3219 29.3674 44.5487 31.1785C44.7755 32.9896 44.4826 34.8279 43.7042 36.4788C42.9258 38.1298 41.6941 39.5254 40.1526 40.5028C38.6111 41.4803 36.8235 41.9993 34.9983 41.9993C33.173 41.9993 31.3854 41.4803 29.8439 40.5028C28.3025 39.5254 27.0707 38.1298 26.2923 36.4788C25.514 34.8279 25.2211 32.9896 25.4478 31.1785C25.6746 29.3674 26.4116 27.6581 27.573 26.25H27.5765ZM48.125 32.375C48.125 30.163 47.579 28.077 46.613 26.25H61.25C62.6424 26.25 63.9778 26.8031 64.9623 27.7877C65.9469 28.7723 66.5 30.1076 66.5 31.5V33.25C66.5 38.8045 62.279 44.492 54.8975 46.494C54.139 45.1314 53.03 43.9963 51.6854 43.2061C50.3409 42.416 48.8096 41.9996 47.25 42H43.925C45.2516 40.7726 46.3097 39.2837 47.0325 37.6272C47.7554 35.9706 48.1273 34.1824 48.125 32.375ZM47.25 45.5C47.94 45.4982 48.6235 45.6327 49.2613 45.8959C49.8991 46.1591 50.4786 46.5457 50.9664 47.0336C51.4543 47.5215 51.841 48.101 52.1041 48.7387C52.3673 49.3765 52.5019 50.0601 52.5 50.75V52.5C52.5 59.3985 45.99 66.5 35 66.5C24.01 66.5 17.5 59.3985 17.5 52.5V50.75C17.4982 50.0601 17.6327 49.3765 17.8959 48.7387C18.1591 48.101 18.5457 47.5215 19.0336 47.0336C19.5215 46.5457 20.1009 46.1591 20.7387 45.8959C21.3765 45.6327 22.06 45.4982 22.75 45.5H47.25ZM3.5 33.25C3.5 38.8045 7.721 44.492 15.1025 46.494C15.8611 45.1314 16.97 43.9963 18.3146 43.2061C19.6592 42.416 21.1905 41.9996 22.75 42H26.075C24.7484 40.7726 23.6903 39.2837 22.9675 37.6272C22.2446 35.9706 21.8727 34.1824 21.875 32.375C21.875 30.163 22.421 28.077 23.3905 26.25H8.75C7.35761 26.25 6.02226 26.8031 5.03769 27.7877C4.05312 28.7723 3.5 30.1076 3.5 31.5V33.25ZM30.625 13.125C30.625 10.5723 29.611 8.12414 27.8059 6.3191C26.0009 4.51406 23.5527 3.5 21 3.5C18.4473 3.5 15.9991 4.51406 14.1941 6.3191C12.3891 8.12414 11.375 10.5723 11.375 13.125C11.375 15.6777 12.3891 18.1259 14.1941 19.9309C15.9991 21.7359 18.4473 22.75 21 22.75C23.5527 22.75 26.0009 21.7359 27.8059 19.9309C29.611 18.1259 30.625 15.6777 30.625 13.125ZM58.625 13.125C58.625 10.5723 57.611 8.12414 55.8059 6.3191C54.0009 4.51406 51.5527 3.5 49 3.5C46.4473 3.5 43.9991 4.51406 42.1941 6.3191C40.3891 8.12414 39.375 10.5723 39.375 13.125C39.375 15.6777 40.3891 18.1259 42.1941 19.9309C43.9991 21.7359 46.4473 22.75 49 22.75C51.5527 22.75 54.0009 21.7359 55.8059 19.9309C57.611 18.1259 58.625 15.6777 58.625 13.125Z" fill="#73BAF4"/>
</svg>
