<svg width="55" height="44" viewBox="0 0 55 44" fill="none" xmlns="http://www.w3.org/2000/svg">
<path d="M27.015 0C26.1194 0 25.2605 0.269978 24.6272 0.75054C23.994 1.2311 23.6382 1.88288 23.6382 2.5625V41C23.6382 41.6796 23.994 42.3314 24.6272 42.812C25.2605 43.2925 26.1194 43.5625 27.015 43.5625C27.9106 43.5625 28.7695 43.2925 29.4028 42.812C30.0361 42.3314 30.3919 41.6796 30.3919 41V2.5625C30.3919 1.88288 30.0361 1.2311 29.4028 0.75054C28.7695 0.269978 27.9106 0 27.015 0Z" fill="#73BAF4"/>
<path d="M50.6532 20.4997C49.7576 20.4997 48.8987 20.7696 48.2654 21.2502C47.6321 21.7308 47.2764 22.3825 47.2764 23.0622V40.9997C47.2764 41.6793 47.6321 42.3311 48.2654 42.8116C48.8987 43.2922 49.7576 43.5622 50.6532 43.5622C51.5488 43.5622 52.4077 43.2922 53.041 42.8116C53.6743 42.3311 54.0301 41.6793 54.0301 40.9997V23.0622C54.0301 22.3825 53.6743 21.7308 53.041 21.2502C52.4077 20.7696 51.5488 20.4997 50.6532 20.4997Z" fill="#73BAF4"/>
<path d="M3.37685 10.2499C2.48126 10.2499 1.62234 10.5199 0.989058 11.0004C0.355775 11.481 0 12.1328 0 12.8124V40.9999C0 41.6795 0.355775 42.3313 0.989058 42.8118C1.62234 43.2924 2.48126 43.5624 3.37685 43.5624C4.27245 43.5624 5.13137 43.2924 5.76465 42.8118C6.39793 42.3313 6.75371 41.6795 6.75371 40.9999V12.8124C6.75371 12.1328 6.39793 11.481 5.76465 11.0004C5.13137 10.5199 4.27245 10.2499 3.37685 10.2499Z" fill="#73BAF4"/>
</svg>
