<svg width="24" height="24" viewBox="0 0 24 24" fill="none" xmlns="http://www.w3.org/2000/svg">
<path d="M6.70078 14.7C6.51745 14.5167 6.42578 14.2833 6.42578 14C6.42578 13.7167 6.51745 13.4833 6.70078 13.3L11.3008 8.69999C11.4008 8.59999 11.5091 8.52932 11.6258 8.48799C11.7424 8.44665 11.8674 8.42565 12.0008 8.42499C12.1341 8.42499 12.2634 8.44999 12.3888 8.49999C12.5141 8.54999 12.6181 8.61665 12.7008 8.69999L17.3008 13.3C17.4841 13.4833 17.5758 13.7167 17.5758 14C17.5758 14.2833 17.4841 14.5167 17.3008 14.7C17.1174 14.8833 16.8841 14.975 16.6008 14.975C16.3174 14.975 16.0841 14.8833 15.9008 14.7L12.0008 10.8L8.10078 14.7C7.91745 14.8833 7.68411 14.975 7.40078 14.975C7.11745 14.975 6.88411 14.8833 6.70078 14.7Z" fill="#7AAF71"/>
</svg>
