<svg width="70" height="70" viewBox="0 0 70 70" fill="none" xmlns="http://www.w3.org/2000/svg">
<path d="M17.5003 61.25C15.8962 61.25 14.5224 60.6783 13.3791 59.535C12.2357 58.3917 11.6651 57.0189 11.667 55.4167V29.1667C11.667 28.2431 11.8741 27.3681 12.2882 26.5417C12.7024 25.7153 13.2731 25.0347 14.0003 24.5L31.5003 11.375C32.5212 10.5972 33.6878 10.2083 35.0003 10.2083C36.3128 10.2083 37.4795 10.5972 38.5003 11.375L56.0003 24.5C56.7295 25.0347 57.3011 25.7153 57.7153 26.5417C58.1295 27.3681 58.3356 28.2431 58.3336 29.1667V55.4167C58.3336 57.0208 57.762 58.3946 56.6186 59.5379C55.4753 60.6813 54.1025 61.2519 52.5003 61.25H17.5003ZM29.167 40.8333V51.0417C29.167 51.4306 29.3128 51.7708 29.6045 52.0625C29.8962 52.3542 30.2364 52.5 30.6253 52.5C31.0142 52.5 31.3545 52.3542 31.6462 52.0625C31.9378 51.7708 32.0837 51.4306 32.0837 51.0417V40.8333C33.2989 40.8333 34.3324 40.4075 35.1841 39.5558C36.0357 38.7042 36.4606 37.6717 36.4586 36.4583V29.1667C36.4586 28.7778 36.3128 28.4375 36.0212 28.1458C35.7295 27.8542 35.3892 27.7083 35.0003 27.7083C34.6114 27.7083 34.2711 27.8542 33.9795 28.1458C33.6878 28.4375 33.542 28.7778 33.542 29.1667V36.4583H32.0837V29.1667C32.0837 28.7778 31.9378 28.4375 31.6462 28.1458C31.3545 27.8542 31.0142 27.7083 30.6253 27.7083C30.2364 27.7083 29.8962 27.8542 29.6045 28.1458C29.3128 28.4375 29.167 28.7778 29.167 29.1667V36.4583H27.7087V29.1667C27.7087 28.7778 27.5628 28.4375 27.2712 28.1458C26.9795 27.8542 26.6392 27.7083 26.2503 27.7083C25.8614 27.7083 25.5212 27.8542 25.2295 28.1458C24.9378 28.4375 24.792 28.7778 24.792 29.1667V36.4583C24.792 37.6736 25.2178 38.7071 26.0695 39.5588C26.9212 40.4104 27.9537 40.8353 29.167 40.8333ZM42.292 52.5C42.6809 52.5 43.0211 52.3542 43.3128 52.0625C43.6045 51.7708 43.7503 51.4306 43.7503 51.0417V29.4583C43.7503 29.0695 43.6045 28.7292 43.3128 28.4375C43.0211 28.1458 42.6809 28 42.292 28C40.9309 28 39.8614 28.559 39.0836 29.6771C38.3059 30.7951 37.917 32.0833 37.917 33.5417V40.8333C37.917 41.2222 38.0628 41.5625 38.3545 41.8542C38.6461 42.1458 38.9864 42.2917 39.3753 42.2917H40.8336V51.0417C40.8336 51.4306 40.9795 51.7708 41.2711 52.0625C41.5628 52.3542 41.9031 52.5 42.292 52.5Z" fill="#73BAF4"/>
</svg>
