<svg width="30" height="29" viewBox="0 0 30 29" fill="none" xmlns="http://www.w3.org/2000/svg">
<path d="M15 28.3333C10.8333 28.3333 7.29167 26.956 4.375 24.2014C1.45833 21.4468 0 18.1019 0 14.1667C0 10.2315 1.45833 6.88657 4.375 4.13194C7.29167 1.37731 10.8333 0 15 0C15.3889 0 15.7711 0.0131174 16.1467 0.039352C16.5222 0.0655866 16.89 0.104938 17.25 0.157407C16.1111 0.91821 15.2011 1.90883 14.52 3.12926C13.8389 4.34969 13.4989 5.66772 13.5 7.08333C13.5 9.44444 14.375 11.4514 16.125 13.1042C17.875 14.7569 20 15.5833 22.5 15.5833C24.0278 15.5833 25.4306 15.2617 26.7083 14.6184C27.9861 13.9752 29.0278 13.1162 29.8333 12.0417C29.8889 12.3827 29.9306 12.7301 29.9583 13.0837C29.9861 13.4373 30 13.7983 30 14.1667C30 18.1019 28.5417 21.4468 25.625 24.2014C22.7083 26.956 19.1667 28.3333 15 28.3333Z" fill="#73BAF4"/>
</svg>
