<svg width="26" height="30" viewBox="0 0 26 30" fill="none" xmlns="http://www.w3.org/2000/svg">
<path d="M25.7143 6.42858C25.7143 9.18572 23.4714 11.4286 20.7143 11.4286C17.9571 11.4286 15.7143 9.18572 15.7143 6.42858C15.7143 3.67144 17.9571 1.42858 20.7143 1.42858C23.4714 1.42858 25.7143 3.67144 25.7143 6.42858ZM22.8571 13.9857C22.1429 14.1714 21.4286 14.2857 20.7143 14.2857C18.6316 14.2819 16.6353 13.4529 15.1626 11.9802C13.6899 10.5076 12.8609 8.51126 12.8571 6.42858C12.8571 4.32858 13.6857 2.42858 15 1.01429C14.7407 0.696494 14.4139 0.440536 14.0432 0.26507C13.6724 0.0896044 13.2673 -0.000949292 12.8571 7.50383e-06C11.2857 7.50383e-06 10 1.28572 10 2.85715V3.27144C5.75714 4.52858 2.85714 8.42858 2.85714 12.8571V21.4286L0 24.2857V25.7143H25.7143V24.2857L22.8571 21.4286V13.9857ZM12.8571 30C14.4429 30 15.7143 28.7286 15.7143 27.1429H10C10 27.9006 10.301 28.6273 10.8368 29.1632C11.3727 29.699 12.0994 30 12.8571 30Z" fill="#73BAF4"/>
</svg>
