<svg width="43" height="38" viewBox="0 0 43 38" fill="none" xmlns="http://www.w3.org/2000/svg">
<g filter="url(#filter0_i_535_799)">
<path fill-rule="evenodd" clip-rule="evenodd" d="M5.49082 6.16184C4.26412 7.56875 3.61069 9.63559 3.61069 12.2088C3.61069 15.07 4.94473 17.8478 7.76282 21.129C10.5943 24.4258 14.6818 27.9604 19.792 32.3735L21.5044 33.858L23.2065 32.3935C28.3165 27.9712 32.4051 24.4311 35.2368 21.1318C38.0553 17.8479 39.3893 15.07 39.3893 12.2088C39.3893 9.66539 38.7016 7.59803 37.432 6.18038C36.1825 4.78521 34.1607 3.78593 31.0254 3.78593C27.8089 3.78593 24.9839 6.35425 22.817 8.77758L21.5 10.2505L20.183 8.77758C19.167 7.64138 17.8607 6.36742 16.3835 5.38711C14.9005 4.40291 13.3534 3.78593 11.8213 3.78593C8.66164 3.78593 6.69081 4.78555 5.49082 6.16184ZM2.82594 3.6073C4.86397 1.26987 7.90112 0 11.8213 0C14.2716 0 16.4905 0.977572 18.3146 2.18812C19.5065 2.97912 20.5761 3.90018 21.4896 4.79572C23.7105 2.5621 26.9864 0 31.0254 0C34.9249 0 37.9877 1.27021 40.0641 3.58876C42.1204 5.88483 43 8.97541 43 12.2088C43 16.4375 40.986 20.0929 37.9207 23.6644C34.9037 27.1796 30.6358 30.8731 25.677 35.1644L25.5049 35.3133L23.0632 37.4142C22.1527 38.1976 20.8406 38.195 19.9328 37.408L17.4965 35.2959L17.3738 35.1898C12.3936 30.8891 8.10716 27.1874 5.07974 23.6625C2.01405 20.093 0 16.4375 0 12.2088C0 9.0052 0.814622 5.91411 2.82594 3.6073Z" fill="white"/>
</g>
<defs>
<filter id="filter0_i_535_799" x="0" y="0" width="43" height="42" filterUnits="userSpaceOnUse" color-interpolation-filters="sRGB">
<feFlood flood-opacity="0" result="BackgroundImageFix"/>
<feBlend mode="normal" in="SourceGraphic" in2="BackgroundImageFix" result="shape"/>
<feColorMatrix in="SourceAlpha" type="matrix" values="0 0 0 0 0 0 0 0 0 0 0 0 0 0 0 0 0 0 127 0" result="hardAlpha"/>
<feOffset dy="4"/>
<feGaussianBlur stdDeviation="2"/>
<feComposite in2="hardAlpha" operator="arithmetic" k2="-1" k3="1"/>
<feColorMatrix type="matrix" values="0 0 0 0 0 0 0 0 0 0 0 0 0 0 0 0 0 0 0.25 0"/>
<feBlend mode="normal" in2="shape" result="effect1_innerShadow_535_799"/>
</filter>
</defs>
</svg>
