<svg width="100" height="100" viewBox="0 0 100 100" fill="none" xmlns="http://www.w3.org/2000/svg">
<path d="M66.6663 50C78.1663 50 87.4996 40.6667 87.4996 29.1667C87.4996 17.6667 78.1663 8.33333 66.6663 8.33333C55.1663 8.33333 45.8329 17.6667 45.8329 29.1667C45.8329 40.6667 55.1663 50 66.6663 50ZM89.3746 73.3333C87.7496 71.6667 85.7079 70.8333 83.3329 70.8333H54.1663L45.4996 67.7917L46.8746 63.875L54.1663 66.6667H65.8329C67.2913 66.6667 68.4579 66.0833 69.4163 65.125C70.3746 64.1667 70.8329 63 70.8329 61.7083C70.8329 59.4583 69.7496 57.9167 67.5829 57.0417L37.2913 45.8333H29.1663V83.3333L58.3329 91.6667L91.7913 79.1667C91.8329 76.9583 90.9996 75 89.3746 73.3333ZM20.8329 45.8333H4.09961V91.6667H20.8329V45.8333Z" fill="#73BAF4"/>
</svg>
