<svg width="30" height="30" viewBox="0 0 30 30" fill="none" xmlns="http://www.w3.org/2000/svg">
<circle cx="15" cy="15" r="15" fill="#D1E2EF"/>
<path d="M21.3333 22.5L16.0833 17.25C15.6667 17.5833 15.1875 17.8472 14.6458 18.0417C14.1042 18.2361 13.5278 18.3333 12.9167 18.3333C11.4028 18.3333 10.1217 17.8089 9.07333 16.76C8.025 15.7111 7.50056 14.43 7.5 12.9167C7.5 11.4028 8.02444 10.1217 9.07333 9.07333C10.1222 8.025 11.4033 7.50056 12.9167 7.5C14.4306 7.5 15.7117 8.02444 16.76 9.07333C17.8083 10.1222 18.3328 11.4033 18.3333 12.9167C18.3333 13.5278 18.2361 14.1042 18.0417 14.6458C17.8472 15.1875 17.5833 15.6667 17.25 16.0833L22.5 21.3333L21.3333 22.5ZM12.9167 16.6667C13.9583 16.6667 14.8439 16.3019 15.5733 15.5725C16.3028 14.8431 16.6672 13.9578 16.6667 12.9167C16.6667 11.875 16.3019 10.9894 15.5725 10.26C14.8431 9.53056 13.9578 9.16611 12.9167 9.16667C11.875 9.16667 10.9894 9.53139 10.26 10.2608C9.53056 10.9903 9.16611 11.8756 9.16667 12.9167C9.16667 13.9583 9.53139 14.8439 10.2608 15.5733C10.9903 16.3028 11.8756 16.6672 12.9167 16.6667Z" fill="black"/>
</svg>
