<svg width="47" height="48" viewBox="0 0 47 48" fill="none" xmlns="http://www.w3.org/2000/svg">
<g filter="url(#filter0_i_535_733)">
<path fill-rule="evenodd" clip-rule="evenodd" d="M0 21.9245C0 21.3738 0.362612 20.8939 0.8795 20.7603L4.65738 19.7842C5.41504 19.5884 6.16078 19.2656 6.65922 18.6442C7.41241 17.7053 7.83657 16.5147 7.83657 15.2701C7.83657 14.7302 7.6946 14.2006 7.42585 13.7377L5.22408 9.94528C4.94994 9.47311 5.02193 8.86871 5.39868 8.47934L8.22174 5.56173C8.59848 5.17237 9.18328 5.09797 9.64015 5.38127L13.3088 7.6562C13.7573 7.9343 14.2705 8.08123 14.7935 8.08129C15.9857 8.08142 17.1267 7.65103 18.0301 6.88563C18.6389 6.36989 18.9548 5.59303 19.1457 4.80382L20.0879 0.908957C20.2171 0.374756 20.6815 0 21.2143 0H25.2067C25.7395 0 26.204 0.374767 26.3332 0.908978L27.2724 4.79203C27.4651 5.58886 27.7857 6.37284 28.4025 6.89082C29.3104 7.65329 30.4535 8.08157 31.6472 8.08157C32.1727 8.08157 32.6882 7.93398 33.1388 7.6546L36.8043 5.38163C37.2612 5.09833 37.846 5.17274 38.2227 5.5621L41.0458 8.4797C41.4225 8.86907 41.4945 9.47347 41.2204 9.94564L39.0176 13.7398C38.7495 14.2015 38.6079 14.7299 38.6079 15.2684C38.6079 16.5132 39.0319 17.704 39.7848 18.6433C40.2834 19.2653 41.0297 19.5885 41.788 19.7844L45.5649 20.7603C46.0818 20.8939 46.4444 21.3738 46.4444 21.9245V26.0506C46.4444 26.6012 46.0818 27.0812 45.5649 27.2148L41.7767 28.1935C41.0257 28.3875 40.3199 28.7347 39.7007 29.2148L39.0752 29.6998C38.7812 29.9277 38.6054 30.2863 38.6248 30.6656C38.7303 32.7297 39.323 34.7392 40.3551 36.5169L41.2376 38.037C41.5117 38.5091 41.4397 39.1135 41.063 39.5029L38.2399 42.4205C37.8632 42.8099 37.2783 42.8843 36.8215 42.601L33.1609 40.331C32.7072 40.0496 32.188 39.901 31.6588 39.901C30.4534 39.901 29.3 40.3378 28.3884 41.1142C27.7818 41.6309 27.4663 42.4064 27.2756 43.1946L26.3332 47.091C26.204 47.6252 25.7395 48 25.2067 48H21.2143C20.6815 48 20.2171 47.6252 20.0879 47.091L19.1425 43.1828C18.9537 42.4023 18.6428 41.6338 18.0441 41.1195C17.1371 40.3401 15.9858 39.9011 14.782 39.9012C14.2552 39.9013 13.7384 40.0493 13.2867 40.3294L9.62298 42.6013C9.16611 42.8846 8.5813 42.8102 8.20455 42.4209L5.38149 39.5033C5.00475 39.1139 4.93275 38.5095 5.20688 38.0373L6.99198 34.9625C7.53334 34.03 7.81931 32.963 7.81931 31.8755V30.6719C7.81931 30.2981 7.65079 29.9457 7.3635 29.7187L6.75931 29.2412C6.13013 28.7439 5.40916 28.385 4.64075 28.1865L0.87952 27.2148C0.362622 27.0812 0 26.6012 0 26.0506V21.9245ZM23.2343 33C28.0437 33 31.9426 28.9706 31.9426 24C31.9426 19.0294 28.0437 15 23.2343 15C18.4248 15 14.5259 19.0294 14.5259 24C14.5259 28.9706 18.4248 33 23.2343 33Z" fill="white"/>
</g>
<defs>
<filter id="filter0_i_535_733" x="0" y="0" width="46.4445" height="52" filterUnits="userSpaceOnUse" color-interpolation-filters="sRGB">
<feFlood flood-opacity="0" result="BackgroundImageFix"/>
<feBlend mode="normal" in="SourceGraphic" in2="BackgroundImageFix" result="shape"/>
<feColorMatrix in="SourceAlpha" type="matrix" values="0 0 0 0 0 0 0 0 0 0 0 0 0 0 0 0 0 0 127 0" result="hardAlpha"/>
<feOffset dy="4"/>
<feGaussianBlur stdDeviation="2"/>
<feComposite in2="hardAlpha" operator="arithmetic" k2="-1" k3="1"/>
<feColorMatrix type="matrix" values="0 0 0 0 0 0 0 0 0 0 0 0 0 0 0 0 0 0 0.25 0"/>
<feBlend mode="normal" in2="shape" result="effect1_innerShadow_535_733"/>
</filter>
</defs>
</svg>
