<svg width="70" height="70" viewBox="0 0 70 70" fill="none" xmlns="http://www.w3.org/2000/svg">
<path d="M16.667 61.25C13.9056 61.25 11.667 59.0114 11.667 56.25V28.75C11.667 27.1762 12.408 25.6943 13.667 24.75L32.0003 11C33.7781 9.66667 36.2225 9.66667 38.0003 11L56.3336 24.75C57.5927 25.6943 58.3336 27.1762 58.3336 28.75V56.25C58.3336 59.0114 56.0951 61.25 53.3336 61.25H16.667ZM20.417 51.0417C20.417 51.8471 21.0699 52.5 21.8753 52.5C22.6807 52.5 23.3337 51.8471 23.3337 51.0417V50.3125C23.3337 49.1044 24.313 48.125 25.5212 48.125H44.4795C45.6876 48.125 46.667 49.1044 46.667 50.3125V51.0417C46.667 51.8471 47.3199 52.5 48.1253 52.5C48.9307 52.5 49.5836 51.8471 49.5836 51.0417V40.8333C49.5836 39.2292 49.012 37.8554 47.8686 36.7121C46.7253 35.5688 45.3525 34.9981 43.7503 35H38.542C35.7806 35 33.542 37.2386 33.542 40V40.2083C33.542 42.9698 31.3034 45.2083 28.542 45.2083H28.3337C25.5722 45.2083 23.3337 42.9698 23.3337 40.2083V33.5417C23.3337 32.7363 22.6807 32.0833 21.8753 32.0833C21.0699 32.0833 20.417 32.7363 20.417 33.5417V51.0417ZM28.4378 43.75C29.4587 43.75 30.322 43.3971 31.0278 42.6912C31.7337 41.9854 32.0856 41.1231 32.0837 40.1042C32.0837 39.0833 31.7307 38.22 31.0249 37.5142C30.3191 36.8083 29.4567 36.4564 28.4378 36.4583C27.417 36.4583 26.5537 36.8113 25.8478 37.5171C25.142 38.2229 24.79 39.0853 24.792 40.1042C24.792 41.125 25.1449 41.9883 25.8507 42.6942C26.5566 43.4 27.4189 43.7519 28.4378 43.75Z" fill="#73BAF4"/>
</svg>
