<svg width="54" height="54" viewBox="0 0 54 54" fill="none" xmlns="http://www.w3.org/2000/svg">
<path fill-rule="evenodd" clip-rule="evenodd" d="M26.9966 3.375C27.5333 3.37442 28.0563 3.54443 28.4901 3.8605C28.9238 4.17656 29.2459 4.62231 29.4097 5.13338L40.5 39.7912L44.8403 26.2305C45.0034 25.7194 45.3247 25.2733 45.7578 24.9566C46.1909 24.6399 46.7135 24.4691 47.25 24.4688H51.4688C52.1401 24.4688 52.7839 24.7354 53.2586 25.2101C53.7333 25.6848 54 26.3287 54 27C54 27.6713 53.7333 28.3152 53.2586 28.7899C52.7839 29.2646 52.1401 29.5313 51.4688 29.5313H49.0961L42.9097 48.8666C42.7457 49.3768 42.424 49.8217 41.991 50.1374C41.5579 50.453 41.0359 50.6231 40.5 50.6231C39.9641 50.6231 39.4421 50.453 39.009 50.1374C38.576 49.8217 38.2543 49.3768 38.0903 48.8666L27.0169 14.2628L19.2881 38.7315C19.1287 39.2357 18.8153 39.6773 18.392 39.9943C17.9688 40.3113 17.4568 40.4878 16.9281 40.499C16.3994 40.5101 15.8805 40.3554 15.4442 40.0566C15.008 39.7578 14.6762 39.3298 14.4956 38.8327L10.2296 27.1013L9.99337 27.8033C9.82557 28.3071 9.50355 28.7454 9.0729 29.0561C8.64225 29.3668 8.12479 29.5342 7.59375 29.5346H2.53125C1.85992 29.5346 1.21609 29.2679 0.741386 28.7932C0.266684 28.3185 0 27.6747 0 27.0034C0 26.332 0.266684 25.6882 0.741386 25.2135C1.21609 24.7388 1.85992 24.4721 2.53125 24.4721H5.77125L7.722 18.6098C7.88737 18.1104 8.20419 17.675 8.62842 17.364C9.05265 17.0531 9.56323 16.882 10.0892 16.8746C10.6151 16.8671 11.1303 17.0238 11.5632 17.3226C11.996 17.6215 12.325 18.0478 12.5044 18.5423L16.7062 30.1016L24.5869 5.14688C24.7482 4.63384 25.0688 4.18553 25.502 3.86694C25.9353 3.54835 26.4588 3.37604 26.9966 3.375Z" fill="#73BAF4"/>
</svg>
