<svg width="170" height="160" viewBox="0 0 170 160" fill="none" xmlns="http://www.w3.org/2000/svg">
<path d="M113.139 93.8576C102.985 94.8463 94.3071 106.524 84.5027 114.8C93.3904 129.124 102.262 147.661 115.322 147.24C129.143 138.941 138.885 124.508 140.781 107.723C127.123 107.7 126.579 92.5419 113.139 93.8576Z" fill="#73BAF4"/>
<path d="M84.495 114.8C78.9402 105.847 73.3777 98.5364 66.7896 98.5364C54.0408 98.5364 44.3451 113.172 36.9258 115.056C42.8457 137.875 63.581 154.768 88.1775 154.768C98.0907 154.768 107.375 152.02 115.322 147.248C102.263 147.668 93.3904 129.132 84.5028 114.807L84.495 114.8Z" fill="#7AAF71"/>
<path d="M88.1775 43.4021C56.0452 43.4021 30.0037 69.5056 30.0037 101.697C30.0037 133.889 56.0529 159.992 88.1775 159.992C120.302 159.992 146.351 133.889 146.351 101.697C146.351 69.5056 120.31 43.4021 88.1775 43.4021ZM88.1775 48.6337C117.373 48.6337 141.131 72.4406 141.131 101.697C141.131 103.737 141.006 105.738 140.781 107.715C138.878 124.5 129.135 138.933 115.322 147.232C107.382 152.005 98.0984 154.753 88.1775 154.753C63.581 154.753 42.8457 137.859 36.9258 115.041C35.8148 110.775 35.2244 106.298 35.2244 101.689C35.2244 72.4328 58.9818 48.6259 88.1775 48.6259V48.6337Z" fill="#424344"/>
<path d="M66.6187 91.7713C71.4972 91.7713 75.452 87.8082 75.452 82.9196C75.452 78.0309 71.4972 74.0679 66.6187 74.0679C61.7402 74.0679 57.7854 78.0309 57.7854 82.9196C57.7854 87.8082 61.7402 91.7713 66.6187 91.7713Z" fill="#7AAF71"/>
<path d="M113.978 87.7617C118.857 87.7617 122.811 83.7987 122.811 78.91C122.811 74.0214 118.857 70.0583 113.978 70.0583C109.1 70.0583 105.145 74.0214 105.145 78.91C105.145 83.7987 109.1 87.7617 113.978 87.7617Z" fill="#73BAF4"/>
<path d="M168.314 55.2901L127.908 27.5049V5.66765C127.908 3.51895 126.168 1.77508 124.023 1.77508C121.879 1.77508 120.139 3.51895 120.139 5.66765V22.1643L88.8845 0.669594C88.1619 0.171346 87.3307 -0.0310673 86.5149 0.00785836C85.6992 -0.0310673 84.8679 0.171346 84.1376 0.661809L1.69361 56.9561C-0.0777047 58.1628 -0.536072 60.5917 0.668114 62.3668C1.4217 63.4722 2.64143 64.0639 3.88446 64.0639C4.63804 64.0639 5.3994 63.8459 6.06753 63.3866L17.1693 55.8039V76.5435C17.1693 78.046 18.3891 79.2683 19.8885 79.2683C21.3879 79.2683 22.6076 78.046 22.6076 76.5435V52.0904L86.4994 8.47029L154.361 55.1422V76.5513C154.361 78.0538 155.581 79.2761 157.08 79.2761C158.58 79.2761 159.799 78.0538 159.799 76.5513V58.879L163.917 61.7128C164.585 62.1721 165.354 62.3979 166.108 62.3979C167.343 62.3979 168.563 61.8062 169.316 60.7085C170.528 58.9335 170.078 56.5123 168.314 55.2979V55.2901Z" fill="#424344"/>
</svg>
